<?xml version="1.0" encoding="iso-8859-1"?>
<!-- Generator: Adobe Illustrator 19.0.0, SVG Export Plug-In . SVG Version: 6.00 Build 0)  -->
<svg xmlns="http://www.w3.org/2000/svg" xmlns:xlink="http://www.w3.org/1999/xlink" version="1.1" id="Layer_1" x="0px" y="0px" viewBox="0 0 320 320" style="enable-background:new 0 0 320 320;" xml:space="preserve" width="24px" height="24px">
<g id="XMLID_105_">
	<g>
		<g>
			<polygon points="125.007,180.849 20,285.857 20,203.401 0,203.401 0,320 116.599,320 116.599,300 34.142,300 139.15,194.992         " fill="#5a9cfc"/>
			<polygon points="203.401,0 203.401,20 285.855,20 180.85,125.005 194.993,139.148 300,34.14 300,116.599 320,116.599 320,0         " fill="#5a9cfc"/>
			<polygon points="20,34.142 125.006,139.148 139.149,125.006 34.143,20 116.599,20 116.599,0 0,0 0,116.599 20,116.599    " fill="#FFFFFF"/>
			<polygon points="300,285.855 194.994,180.849 180.851,194.991 285.86,300 203.401,300 203.401,320 320,320 320,203.401      300,203.401    " fill="#FFFFFF"/>
		</g>
	</g>
</g>
</svg>
