<svg baseProfile="full" width="100" height="100" xmlns="http://www.w3.org/2000/svg">
  <path d="M40 84.58l4 13.04h12l4-13.04a30 30 0 0 0 14.95-8.63l13.3 3.06 6-10.4-9.3-9.98a30 30 0 0 0 0-17.26l9.3-9.99-6-10.39-13.3 3.06A30 30 0 0 0 60 15.42L56 2.38H44l-4 13.04a30 30 0 0 0-14.95 8.63l-13.3-3.06-6 10.4 9.3 9.98a30 30 0 0 0 0 17.26l-9.3 9.99 6 10.39 13.3-3.06A30 30 0 0 0 40 84.58" fill="#FFF" stroke="#5a9cfc" stroke-width="5"/>
  <circle cx="50" cy="50" r="20" stroke="#5a9cfc" stroke-width="3" fill="transparent"/>
</svg>
